<?xml version="1.0" encoding="utf-8"?>
<!-- Icon Variant 7: Deep Indigo - VN Manager -->
<svg xmlns="http://www.w3.org/2000/svg" width="108" height="108" viewBox="0 0 108 108">
  <!-- Background gradient -->
  <defs>
    <linearGradient id="bg7" x1="0%" y1="0%" x2="0%" y2="100%">
      <stop offset="0%" style="stop-color:#303F9F"/>
      <stop offset="100%" style="stop-color:#3F51B5"/>
    </linearGradient>
  </defs>
  <rect width="108" height="108" fill="url(#bg7)"/>
  
  <!-- Star accents -->
  <circle cx="20" cy="24" r="2" fill="#FFFFFF" opacity="0.6"/>
  <circle cx="88" cy="20" r="1.5" fill="#FFFFFF" opacity="0.5"/>
  <circle cx="16" cy="80" r="1" fill="#FFFFFF" opacity="0.4"/>
  <circle cx="92" cy="76" r="2" fill="#FFFFFF" opacity="0.5"/>
  
  <!-- Gear - mechanical style -->
  <circle cx="50" cy="42" r="26" fill="#FFFFFF"/>
  <circle cx="50" cy="42" r="18" fill="#3F51B5"/>
  <circle cx="50" cy="42" r="10" fill="#FFFFFF"/>
  
  <!-- Inner gear detail -->
  <circle cx="50" cy="42" r="6" fill="none" stroke="#3F51B5" stroke-width="2" opacity="0.3"/>
  
  <!-- Gear teeth - industrial -->
  <rect x="46" y="12" width="8" height="14" fill="#FFFFFF"/>
  <rect x="46" y="58" width="8" height="14" fill="#FFFFFF"/>
  <rect x="20" y="38" width="14" height="8" fill="#FFFFFF"/>
  <rect x="66" y="38" width="14" height="8" fill="#FFFFFF"/>
  <rect x="26" y="18" width="10" height="8" transform="rotate(-45 31 22)" fill="#FFFFFF"/>
  <rect x="64" y="18" width="10" height="8" transform="rotate(45 69 22)" fill="#FFFFFF"/>
  <rect x="26" y="58" width="10" height="8" transform="rotate(45 31 62)" fill="#FFFFFF"/>
  <rect x="64" y="58" width="10" height="8" transform="rotate(-45 69 62)" fill="#FFFFFF"/>
  
  <!-- Small microphone -->
  <rect x="70" y="66" width="16" height="24" rx="6" fill="#FFFFFF"/>
  <line x1="78" y1="90" x2="78" y2="98" stroke="#FFFFFF" stroke-width="4" stroke-linecap="round"/>
  <line x1="68" y1="98" x2="88" y2="98" stroke="#FFFFFF" stroke-width="4" stroke-linecap="round"/>
  <path d="M64 84 Q64 98 78 98 Q92 98 92 84" fill="none" stroke="#FFFFFF" stroke-width="3" stroke-linecap="round"/>
</svg>
