<?xml version="1.0" encoding="utf-8"?>
<!-- Icon Variant 8: Amber Gold - Voice Notes -->
<svg xmlns="http://www.w3.org/2000/svg" width="108" height="108" viewBox="0 0 108 108">
  <!-- Background gradient -->
  <defs>
    <linearGradient id="bg8" x1="0%" y1="0%" x2="100%" y2="100%">
      <stop offset="0%" style="stop-color:#F57C00"/>
      <stop offset="100%" style="stop-color:#FFA000"/>
    </linearGradient>
  </defs>
  <rect width="108" height="108" fill="url(#bg8)"/>
  
  <!-- Sun rays background -->
  <line x1="54" y1="4" x2="54" y2="20" stroke="#FFFFFF" stroke-width="2" opacity="0.2"/>
  <line x1="54" y1="88" x2="54" y2="104" stroke="#FFFFFF" stroke-width="2" opacity="0.2"/>
  <line x1="4" y1="54" x2="20" y2="54" stroke="#FFFFFF" stroke-width="2" opacity="0.2"/>
  <line x1="88" y1="54" x2="104" y2="54" stroke="#FFFFFF" stroke-width="2" opacity="0.2"/>
  
  <!-- Microphone body - warm design -->
  <ellipse cx="54" cy="42" rx="16" ry="24" fill="#FFFFFF"/>
  
  <!-- Microphone texture -->
  <line x1="42" y1="30" x2="66" y2="30" stroke="#FFA000" stroke-width="1.5" opacity="0.3"/>
  <line x1="40" y1="38" x2="68" y2="38" stroke="#FFA000" stroke-width="1.5" opacity="0.3"/>
  <line x1="40" y1="46" x2="68" y2="46" stroke="#FFA000" stroke-width="1.5" opacity="0.3"/>
  <line x1="42" y1="54" x2="66" y2="54" stroke="#FFA000" stroke-width="1.5" opacity="0.3"/>
  
  <!-- Microphone stand with base -->
  <line x1="54" y1="66" x2="54" y2="80" stroke="#FFFFFF" stroke-width="5" stroke-linecap="round"/>
  <ellipse cx="54" cy="84" rx="18" ry="5" fill="#FFFFFF"/>
  
  <!-- Microphone arc -->
  <path d="M32 52 Q32 74 54 74 Q76 74 76 52" fill="none" stroke="#FFFFFF" stroke-width="5" stroke-linecap="round"/>
</svg>
