<?xml version="1.0" encoding="utf-8"?>
<!-- Icon Variant 8: Amber Gold - VN Manager -->
<svg xmlns="http://www.w3.org/2000/svg" width="108" height="108" viewBox="0 0 108 108">
  <!-- Background gradient -->
  <defs>
    <linearGradient id="bg8" x1="0%" y1="0%" x2="100%" y2="100%">
      <stop offset="0%" style="stop-color:#F57C00"/>
      <stop offset="100%" style="stop-color:#FFA000"/>
    </linearGradient>
  </defs>
  <rect width="108" height="108" fill="url(#bg8)"/>
  
  <!-- Sun rays background -->
  <line x1="54" y1="4" x2="54" y2="20" stroke="#FFFFFF" stroke-width="2" opacity="0.2"/>
  <line x1="54" y1="88" x2="54" y2="104" stroke="#FFFFFF" stroke-width="2" opacity="0.2"/>
  <line x1="4" y1="54" x2="20" y2="54" stroke="#FFFFFF" stroke-width="2" opacity="0.2"/>
  <line x1="88" y1="54" x2="104" y2="54" stroke="#FFFFFF" stroke-width="2" opacity="0.2"/>
  
  <!-- Gear - sun gear style -->
  <circle cx="48" cy="40" r="24" fill="#FFFFFF"/>
  <circle cx="48" cy="40" r="16" fill="#FFA000"/>
  <circle cx="48" cy="40" r="8" fill="#FFFFFF"/>
  
  <!-- Gear teeth - ray style -->
  <polygon points="48,12 44,20 52,20" fill="#FFFFFF"/>
  <polygon points="48,68 44,60 52,60" fill="#FFFFFF"/>
  <polygon points="20,40 28,36 28,44" fill="#FFFFFF"/>
  <polygon points="76,40 68,36 68,44" fill="#FFFFFF"/>
  <polygon points="28,20 30,28 36,22" fill="#FFFFFF"/>
  <polygon points="68,20 66,28 60,22" fill="#FFFFFF"/>
  <polygon points="28,60 36,58 30,52" fill="#FFFFFF"/>
  <polygon points="68,60 60,58 66,52" fill="#FFFFFF"/>
  
  <!-- Small microphone -->
  <ellipse cx="78" cy="76" rx="10" ry="15" fill="#FFFFFF"/>
  <line x1="78" y1="91" x2="78" y2="100" stroke="#FFFFFF" stroke-width="3" stroke-linecap="round"/>
  <line x1="68" y1="100" x2="88" y2="100" stroke="#FFFFFF" stroke-width="3" stroke-linecap="round"/>
  <path d="M64 86 Q64 98 78 98 Q92 98 92 86" fill="none" stroke="#FFFFFF" stroke-width="3" stroke-linecap="round"/>
</svg>
