<?xml version="1.0" encoding="utf-8"?>
<!-- Icon Variant 10: Crimson Red - VN Manager -->
<svg xmlns="http://www.w3.org/2000/svg" width="108" height="108" viewBox="0 0 108 108">
  <!-- Background gradient -->
  <defs>
    <linearGradient id="bg10" x1="0%" y1="0%" x2="100%" y2="100%">
      <stop offset="0%" style="stop-color:#C62828"/>
      <stop offset="100%" style="stop-color:#E53935"/>
    </linearGradient>
    <radialGradient id="glow10" cx="50%" cy="40%" r="60%">
      <stop offset="0%" style="stop-color:#FFFFFF;stop-opacity:0.2"/>
      <stop offset="100%" style="stop-color:#FFFFFF;stop-opacity:0"/>
    </radialGradient>
  </defs>
  <rect width="108" height="108" fill="url(#bg10)"/>
  
  <!-- Subtle glow -->
  <ellipse cx="48" cy="42" rx="40" ry="36" fill="url(#glow10)"/>
  
  <!-- Gear - bold style -->
  <circle cx="48" cy="40" r="28" fill="#FFFFFF"/>
  <circle cx="48" cy="40" r="20" fill="#E53935"/>
  <circle cx="48" cy="40" r="12" fill="#FFFFFF"/>
  
  <!-- Recording indicator in gear -->
  <circle cx="48" cy="40" r="5" fill="#E53935"/>
  <circle cx="48" cy="40" r="3" fill="#FFFFFF" opacity="0.6"/>
  
  <!-- Gear teeth - bold -->
  <rect x="43" y="8" width="10" height="14" rx="2" fill="#FFFFFF"/>
  <rect x="43" y="58" width="10" height="14" rx="2" fill="#FFFFFF"/>
  <rect x="16" y="35" width="14" height="10" rx="2" fill="#FFFFFF"/>
  <rect x="66" y="35" width="14" height="10" rx="2" fill="#FFFFFF"/>
  <rect x="22" y="15" width="10" height="10" rx="2" transform="rotate(-45 27 20)" fill="#FFFFFF"/>
  <rect x="64" y="15" width="10" height="10" rx="2" transform="rotate(45 69 20)" fill="#FFFFFF"/>
  <rect x="22" y="55" width="10" height="10" rx="2" transform="rotate(45 27 60)" fill="#FFFFFF"/>
  <rect x="64" y="55" width="10" height="10" rx="2" transform="rotate(-45 69 60)" fill="#FFFFFF"/>
  
  <!-- Small microphone -->
  <rect x="70" y="64" width="18" height="28" rx="9" fill="#FFFFFF"/>
  <circle cx="79" cy="72" r="3" fill="#E53935"/>
  <line x1="79" y1="92" x2="79" y2="100" stroke="#FFFFFF" stroke-width="4" stroke-linecap="round"/>
  <line x1="67" y1="100" x2="91" y2="100" stroke="#FFFFFF" stroke-width="4" stroke-linecap="round"/>
  <path d="M62 86 Q62 100 79 100 Q96 100 96 86" fill="none" stroke="#FFFFFF" stroke-width="4" stroke-linecap="round"/>
</svg>
