<?xml version="1.0" encoding="utf-8"?>
<!-- Icon Variant 4: Royal Purple - VN Manager -->
<svg xmlns="http://www.w3.org/2000/svg" width="108" height="108" viewBox="0 0 108 108">
  <!-- Background gradient -->
  <defs>
    <linearGradient id="bg4" x1="0%" y1="0%" x2="100%" y2="100%">
      <stop offset="0%" style="stop-color:#7B1FA2"/>
      <stop offset="100%" style="stop-color:#9C27B0"/>
    </linearGradient>
    <linearGradient id="gear4" x1="0%" y1="0%" x2="0%" y2="100%">
      <stop offset="0%" style="stop-color:#FFFFFF"/>
      <stop offset="100%" style="stop-color:#E1BEE7"/>
    </linearGradient>
  </defs>
  <rect width="108" height="108" fill="url(#bg4)"/>
  
  <!-- Decorative circles -->
  <circle cx="20" cy="20" r="15" fill="#FFFFFF" opacity="0.1"/>
  <circle cx="88" cy="88" r="20" fill="#FFFFFF" opacity="0.1"/>
  
  <!-- Main gear -->
  <circle cx="48" cy="42" r="28" fill="url(#gear4)"/>
  <circle cx="48" cy="42" r="20" fill="#9C27B0"/>
  <circle cx="48" cy="42" r="12" fill="#FFFFFF"/>
  
  <!-- Gear teeth -->
  <rect x="44" y="10" width="8" height="12" rx="2" fill="url(#gear4)"/>
  <rect x="44" y="62" width="8" height="12" rx="2" fill="url(#gear4)"/>
  <rect x="16" y="38" width="12" height="8" rx="2" fill="url(#gear4)"/>
  <rect x="68" y="38" width="12" height="8" rx="2" fill="url(#gear4)"/>
  <rect x="23" y="19" width="10" height="8" rx="2" transform="rotate(-45 28 23)" fill="url(#gear4)"/>
  <rect x="63" y="19" width="10" height="8" rx="2" transform="rotate(45 68 23)" fill="url(#gear4)"/>
  <rect x="23" y="57" width="10" height="8" rx="2" transform="rotate(45 28 61)" fill="url(#gear4)"/>
  <rect x="63" y="57" width="10" height="8" rx="2" transform="rotate(-45 68 61)" fill="url(#gear4)"/>
  
  <!-- Small microphone -->
  <rect x="72" y="66" width="16" height="24" rx="8" fill="#FFFFFF"/>
  <line x1="80" y1="90" x2="80" y2="98" stroke="#FFFFFF" stroke-width="3" stroke-linecap="round"/>
  <line x1="70" y1="98" x2="90" y2="98" stroke="#FFFFFF" stroke-width="3" stroke-linecap="round"/>
  <path d="M66 84 Q66 96 80 96 Q94 96 94 84" fill="none" stroke="#FFFFFF" stroke-width="3" stroke-linecap="round"/>
</svg>
