<?xml version="1.0" encoding="utf-8"?>
<!-- Icon Variant 2: Sunset Orange - VN Manager -->
<svg xmlns="http://www.w3.org/2000/svg" width="108" height="108" viewBox="0 0 108 108">
  <!-- Background gradient -->
  <defs>
    <linearGradient id="bg2" x1="0%" y1="0%" x2="100%" y2="100%">
      <stop offset="0%" style="stop-color:#FF7043"/>
      <stop offset="100%" style="stop-color:#FF5722"/>
    </linearGradient>
  </defs>
  <rect width="108" height="108" fill="url(#bg2)"/>
  
  <!-- Gear icon - stylized -->
  <circle cx="50" cy="42" r="24" fill="#FFFFFF"/>
  <circle cx="50" cy="42" r="16" fill="#FF5722"/>
  <circle cx="50" cy="42" r="8" fill="#FFFFFF"/>
  
  <!-- Gear teeth -->
  <rect x="46" y="14" width="8" height="12" fill="#FFFFFF"/>
  <rect x="46" y="58" width="8" height="12" fill="#FFFFFF"/>
  <rect x="22" y="38" width="12" height="8" fill="#FFFFFF"/>
  <rect x="66" y="38" width="12" height="8" fill="#FFFFFF"/>
  <rect x="28" y="20" width="10" height="8" transform="rotate(-45 33 24)" fill="#FFFFFF"/>
  <rect x="62" y="20" width="10" height="8" transform="rotate(45 67 24)" fill="#FFFFFF"/>
  <rect x="28" y="56" width="10" height="8" transform="rotate(45 33 60)" fill="#FFFFFF"/>
  <rect x="62" y="56" width="10" height="8" transform="rotate(-45 67 60)" fill="#FFFFFF"/>
  
  <!-- Small microphone -->
  <ellipse cx="76" cy="76" rx="8" ry="12" fill="#FFFFFF"/>
  <line x1="76" y1="88" x2="76" y2="94" stroke="#FFFFFF" stroke-width="2.5" stroke-linecap="round"/>
</svg>
