<?xml version="1.0" encoding="utf-8"?>
<!-- Icon Variant 9: Slate Gray - VN Manager -->
<svg xmlns="http://www.w3.org/2000/svg" width="108" height="108" viewBox="0 0 108 108">
  <!-- Background gradient -->
  <defs>
    <linearGradient id="bg9" x1="0%" y1="0%" x2="0%" y2="100%">
      <stop offset="0%" style="stop-color:#455A64"/>
      <stop offset="100%" style="stop-color:#607D8B"/>
    </linearGradient>
  </defs>
  <rect width="108" height="108" fill="url(#bg9)"/>
  
  <!-- Subtle pattern -->
  <rect x="10" y="10" width="88" height="88" fill="none" stroke="#FFFFFF" stroke-width="1" opacity="0.1" rx="8"/>
  <rect x="20" y="20" width="68" height="68" fill="none" stroke="#FFFFFF" stroke-width="1" opacity="0.08" rx="4"/>
  
  <!-- Gear - precise engineering style -->
  <circle cx="50" cy="42" r="26" fill="#FFFFFF"/>
  <circle cx="50" cy="42" r="18" fill="#607D8B"/>
  <circle cx="50" cy="42" r="10" fill="#FFFFFF"/>
  <circle cx="50" cy="42" r="4" fill="#607D8B"/>
  
  <!-- Gear teeth - precise -->
  <rect x="46" y="12" width="8" height="12" rx="1" fill="#FFFFFF"/>
  <rect x="46" y="60" width="8" height="12" rx="1" fill="#FFFFFF"/>
  <rect x="20" y="38" width="12" height="8" rx="1" fill="#FFFFFF"/>
  <rect x="68" y="38" width="12" height="8" rx="1" fill="#FFFFFF"/>
  <rect x="26" y="18" width="9" height="7" rx="1" transform="rotate(-45 30.5 21.5)" fill="#FFFFFF"/>
  <rect x="65" y="18" width="9" height="7" rx="1" transform="rotate(45 69.5 21.5)" fill="#FFFFFF"/>
  <rect x="26" y="59" width="9" height="7" rx="1" transform="rotate(45 30.5 62.5)" fill="#FFFFFF"/>
  <rect x="65" y="59" width="9" height="7" rx="1" transform="rotate(-45 69.5 62.5)" fill="#FFFFFF"/>
  
  <!-- Small microphone -->
  <rect x="70" y="66" width="16" height="24" rx="8" fill="#FFFFFF"/>
  <line x1="78" y1="90" x2="78" y2="98" stroke="#FFFFFF" stroke-width="3" stroke-linecap="round"/>
  <rect x="68" y="96" width="20" height="4" rx="2" fill="#FFFFFF"/>
  <path d="M64 84 Q64 96 78 96 Q92 96 92 84" fill="none" stroke="#FFFFFF" stroke-width="3" stroke-linecap="round"/>
</svg>
